<?xml version="1.0" encoding="UTF-8"?>
<svg width="120px" height="96px" viewBox="0 0 120 96" version="1.1" xmlns="http://www.w3.org/2000/svg" xmlns:xlink="http://www.w3.org/1999/xlink">
    <title>Fill 1</title>
    <g id="Page-1" stroke="none" stroke-width="1" fill="none" fill-rule="evenodd">
        <g id="SG_0" transform="translate(-623.000000, -336.000000)" fill="#5D2AC3">
            <path d="M680.25005,430 C666.589102,430 653.665885,423.797843 645,413.251067 C645.0205,413.214175 645.043396,413.17939 645.063896,413.142234 C645.854608,411.734258 646.405178,410.195841 646.72093,408.526455 C647.091527,406.857333 647.118682,405.105993 646.804527,403.276125 C646.689781,402.710352 646.564918,402.158809 646.405178,401.63599 C647.885167,400.701819 649.31191,399.62324 650.681413,398.428187 C650.832899,398.301698 650.977996,398.172047 651.124691,398.043187 C651.126022,399.731019 651.175275,401.225956 651.280171,402.510605 C652.387168,404.90651 653.760664,406.142409 655.400127,406.192477 C657.03746,406.242282 658.352118,405.426958 659.358213,403.75968 C659.466037,403.49748 659.566141,403.035006 659.672634,402.348542 C659.781523,401.66524 659.886685,400.893396 659.99451,400.005078 C660.1436,398.226068 660.239444,396.194345 660.289762,393.888828 C660.385606,391.59754 660.46308,389.484126 660.513398,387.553067 C660.776969,386.667911 661.142507,385.674448 661.620661,384.574525 C662.148867,383.52994 662.697307,382.462956 663.277695,381.36435 C664.333043,379.43619 665.46693,377.705141 666.680686,376.197028 C667.942364,374.676793 669.030725,373.952119 669.922605,374.002451 C670.295332,374.052519 670.313702,375.099476 669.999813,377.143847 C669.682996,379.172672 669.314263,381.709558 668.892816,384.736852 C668.626583,386.346155 668.392032,388.077468 668.179312,389.896268 C667.970319,391.677386 667.811644,393.446381 667.708345,395.228816 C667.444775,399.403203 667.655099,403.246084 668.342779,406.736642 C668.967095,410.185564 670.63611,412.217814 673.321869,412.843932 C673.587835,412.892156 673.876698,412.920879 674.190587,412.920879 C675.822329,412.920879 677.544324,411.844672 679.333144,409.714657 C681.386333,407.149311 683.286438,404.282236 685.02494,401.092352 C685.58536,400.014828 686.117294,398.961547 686.622338,397.933563 C688.842189,398.956013 691.182377,399.350763 693.64237,399.120712 C694.648464,399.021102 695.700884,397.945949 696.807614,395.913699 C697.863494,393.881713 698.845894,391.737995 699.738307,389.496248 C700.316565,387.984709 700.797116,386.596761 701.168245,385.349267 C701.474413,384.253296 701.714023,383.419262 701.875892,382.845057 C701.66823,384.203228 701.399069,385.902918 701.083583,387.934905 C700.720973,390.116042 700.473643,392.342505 700.372208,394.585042 C700.316565,395.780886 700.342923,396.958547 700.451546,398.114864 C700.550584,399.262221 700.766233,400.299427 701.079856,401.245193 C701.44353,402.389651 702.003684,403.325666 702.743546,404.059827 C703.478083,404.792407 704.472995,405.235907 705.743193,405.387694 L705.98014,405.387694 C707.356831,405.387694 708.962749,404.080645 710.802685,401.475244 C712.706251,398.707515 714.524623,395.680749 716.262858,392.392837 C717.283063,390.478116 718.195444,388.649038 719,386.902178 C718.235645,390.426203 717.641147,394.234299 717.229817,398.316718 C717.032006,400.249359 716.930571,402.149586 716.930571,404.03084 L716.930571,404.893334 C716.983019,406.895807 717.239135,408.709073 717.703711,410.340249 C709.100924,422.667088 695.174807,430 680.25005,430 M635.150515,411.825436 C634.457139,413.877426 633.608752,415.545333 632.606233,416.816559 C631.608763,418.034316 630.827562,418.31342 630.259995,417.648553 C630.000912,417.371128 629.934824,416.986765 630.064585,416.484545 C630.194126,415.930256 630.457381,415.319978 630.851494,414.65819 C631.585709,413.386404 632.695375,411.876946 634.174782,410.170686 C634.782969,409.442832 635.389838,408.727295 636,408 C635.826766,409.387963 635.545727,410.661708 635.150515,411.825436 M741.813419,392.390001 C741.392143,392.335634 740.972725,392.407155 740.556492,392.619607 C740.24007,393.30394 739.581743,394.503963 738.581511,396.225219 C737.580748,397.948058 736.480705,399.832414 735.272622,401.867729 C733.382321,404.950524 731.434151,407.850426 729.437403,410.570074 C727.437734,413.290249 726.021004,414.621174 725.179248,414.569711 C724.809205,414.509538 724.519859,414.205244 724.309885,413.623838 C724.097521,413.049294 723.966652,412.241713 723.921525,411.196081 C723.76066,409.372426 723.7811,406.995604 723.990278,404.064032 C724.149019,401.141962 724.407307,398.19086 724.775757,395.208353 C725.147659,391.443073 725.566281,388.076305 726.03932,385.093269 C726.514218,382.111554 726.777284,380.499559 726.825862,380.239602 C726.825862,379.766138 726.752862,379.370265 726.590935,379.058845 C726.381491,378.746105 726.124,378.485093 725.805721,378.273961 C725.383913,378.012684 724.863888,377.879407 724.230779,377.879407 C723.648372,377.879407 722.989515,378.012684 722.25102,378.273961 C720.932508,378.759037 720.079072,379.467914 719.66284,380.400063 C719.232007,381.199726 718.537844,382.638329 717.566546,384.730122 C716.514285,386.928537 715.359823,389.243602 714.096791,391.702765 C712.567508,394.684481 711.018316,397.424714 709.439128,399.942994 C707.91542,402.390017 706.762286,403.567608 705.978399,403.467848 C705.815144,403.419023 705.71029,403.096783 705.656933,402.531476 C705.606497,401.947959 705.606497,401.172312 705.656933,400.175504 C705.763646,398.290884 706.02034,395.915118 706.448518,393.041608 C706.817235,390.110036 707.235856,387.210398 707.708631,384.338471 C708.287321,380.67084 708.893885,377.457143 709.521419,374.686559 C710.1532,371.867416 710.651989,370.50614 711.018316,370.607748 C711.074062,370.293688 711.047516,370.033732 710.937884,369.830781 C710.887978,369.567921 710.75764,369.355733 710.547135,369.197648 C709.809437,368.521761 708.550387,368.338867 706.762286,368.653718 C705.030461,368.914995 704.006603,369.440186 703.6862,370.222431 C703.579222,370.589273 703.058665,372.440112 702.109135,375.784711 C701.161463,379.139339 700.062481,382.583962 698.795202,386.142333 C697.804526,389.013732 696.810399,391.581364 695.811494,393.816991 C694.814713,396.024115 693.974815,397.11171 693.288615,397.11171 C691.773136,397.11171 691.007831,395.499715 691.007831,392.255668 C691.063311,388.962268 691.636692,385.355865 692.743372,381.434875 C693.636361,378.343634 694.768258,375.453233 696.137738,372.731474 C697.554999,369.961155 699.078176,368.048297 700.712579,367.010054 C701.654942,366.427065 702.605269,366.175025 703.545774,366.22385 C704.491323,366.273994 705.438464,366.768571 706.387995,367.706526 C706.646813,367.604919 706.806086,367.444194 706.859442,367.231479 C706.915187,366.970466 706.859442,366.738221 706.702824,366.526033 C706.01689,365.579896 704.887646,364.916413 703.30952,364.540334 C702.101171,364.248707 700.887779,364.110416 699.683147,364.110416 L698.73282,364.110416 C697.945748,364.16056 697.188406,364.248707 696.450708,364.401778 C695.765836,364.553529 695.190596,364.764662 694.719415,365.028313 C693.719713,365.549546 692.69267,366.3054 691.636692,367.30168 C690.589475,368.300336 689.555795,369.479509 688.552643,370.838673 C686.711186,373.397861 685.154561,376.458487 683.887016,380.015274 C682.725122,383.370166 682.145104,386.867572 682.145104,390.52148 L682.145104,391.38897 C682.185188,393.813296 683.030395,395.699499 684.673823,397.051802 C684.116103,398.145467 683.54166,399.26394 682.947838,400.415139 C681.36865,403.346183 679.7446,405.987448 678.060822,408.345531 C676.430136,410.69253 675.086936,411.707549 674.037595,411.397712 C673.460497,411.247544 673.379268,409.512829 673.799748,406.232097 C674.22182,402.874038 674.667784,399.086853 675.144009,394.855498 C675.457245,391.450726 675.670936,388.085278 675.777118,384.730122 C675.876663,381.395287 675.644391,378.646081 675.063311,376.511534 C674.74742,375.300426 674.301457,374.363527 673.722766,373.68025 C673.148323,372.954483 672.381425,372.563096 671.437734,372.50873 C670.592527,372.459905 669.731393,372.662592 668.836016,373.135265 C667.992932,373.608993 667.181173,374.233153 666.387729,375.020412 C664.917643,376.4796 663.656734,378.202703 662.607924,380.186555 C661.502837,382.223718 660.824866,383.84495 660.572685,385.052362 C660.471812,383.802987 660.400139,381.918896 660.355278,379.411172 C660.242459,376.852776 660.115041,374.141838 659.954176,371.27255 C659.90135,369.761899 659.825696,368.219841 659.723496,366.648489 C659.613332,365.135199 659.484853,363.67733 659.326642,362.265911 C659.057471,359.656316 658.7445,357.441275 658.378173,355.607591 C657.958755,353.784464 657.455719,352.714551 656.878621,352.40445 C656.300196,352.161648 655.697349,352.020453 655.062913,351.960017 C654.800378,351.960017 654.564389,351.989048 654.359989,352.03233 C653.464346,352.193318 652.804957,352.948116 652.385539,354.305696 C652.963965,354.778897 653.277466,356.291132 653.333212,358.862195 C653.386037,361.47047 653.31171,364.611855 653.108637,368.269985 C653.001128,370.205277 652.897336,372.268567 652.791685,374.46619 L652.297674,381.054837 C651.979394,385.284608 651.747121,389.365003 651.589442,393.282827 C651.55042,393.974021 651.519096,394.640671 651.495205,395.283041 C650.260046,396.888702 648.695988,398.230184 646.811262,399.306958 C646.44228,399.51941 646.098251,399.731862 645.789262,399.942994 C645.525135,399.368714 645.203935,398.846162 644.836281,398.370059 C643.735176,396.909815 642.445333,395.600267 640.976043,394.453291 C639.136974,393.041608 637.270034,391.783523 635.37522,390.684052 C633.431032,389.588012 631.77672,388.437605 630.412284,387.241012 C629.722368,386.556152 629.151906,385.849123 628.67515,385.122036 C628.196536,384.388615 627.914889,383.602412 627.809238,382.7658 C627.649434,380.620696 628.15247,379.079958 629.307197,378.142003 C630.518731,377.145723 631.593291,377.095315 632.53937,377.981015 C632.960115,378.353135 633.29857,378.926887 633.562697,379.704118 C633.828151,380.489002 633.958224,381.516689 633.958224,382.7658 C634.273849,383.552004 634.901384,383.814599 635.852772,383.552004 C636.744699,383.290727 637.296844,382.929691 637.506288,382.454908 C637.404088,381.094424 637.112088,379.99548 636.638517,379.159133 C636.551183,379.012924 636.461194,378.873312 636.370143,378.736868 L636.370408,378.736868 C636.369347,378.735549 636.368285,378.733965 636.367223,378.732646 C636.293692,378.622857 636.218834,378.516499 636.142649,378.413044 C635.537943,377.346826 635.630587,375.488334 635.801009,374.174827 C640.27657,353.033624 658.842718,337.534404 680.474599,337.534404 C696.880214,337.534404 711.891396,346.394834 720.061818,360.778748 C720.398148,361.514808 720.730497,362.6507 720.479643,363.969485 C720.417792,364.255041 720.383548,364.550626 720.383548,364.854393 C720.383548,367.181599 722.279689,369.064107 724.620997,369.064107 C726.955138,369.064107 728.849952,367.181599 728.849952,364.854393 C728.849952,362.559385 726.991771,360.692976 724.68975,360.656028 L724.690812,360.652597 C724.682583,360.653916 724.673823,360.653652 724.665594,360.654708 C724.650463,360.654444 724.635863,360.652597 724.620997,360.652597 C724.531274,360.652597 724.443939,360.66025 724.355808,360.665792 C722.457809,360.563921 719.839632,357.321457 719.004247,356.220402 C710.208415,343.614486 695.942894,336 680.474599,336 C659.450078,336 641.226897,350.152197 635.27594,369.995464 L635.284965,369.951918 C635.284965,369.951918 635.269834,370.008396 635.241431,370.108684 C635.213824,370.201054 635.187013,370.293424 635.159936,370.385795 C634.745296,371.765016 633.331221,375.97473 631.500647,376.016693 L631.500647,376.019068 C631.479145,376.018804 631.458174,376.016693 631.436938,376.016693 C630.913993,376.016693 630.383349,376.095867 629.860404,376.238118 C627.965325,376.611558 626.387995,377.445266 625.128414,378.757981 C624.388061,379.430702 623.841491,380.248839 623.472774,381.185475 C623.15768,381.918896 623,382.726213 623,383.625108 L623,384.086432 C623.1022,385.556441 623.522945,386.938829 624.260909,388.246002 C624.995686,389.604902 625.888675,390.887003 626.941202,392.085179 C628.937154,394.392327 631.039022,396.537431 633.249726,398.524449 C635.510602,400.567154 636.876365,402.521975 637.35259,404.407386 C637.448153,404.879267 637.534161,405.373053 637.579288,405.897716 L636.085045,407.074515 C634.929522,408.01247 633.851777,408.959662 632.855261,409.896562 C631.016458,411.680102 629.677506,413.351741 628.830706,414.912009 C627.940638,416.544589 628.095663,417.956009 629.307197,419.153656 C630.675084,420.463996 632.276836,421.118242 634.117231,421.118242 L634.590802,421.118242 C636.582772,421.00555 638.50944,420.334414 640.346119,419.083983 C641.129475,418.585975 641.878057,417.991637 642.597173,417.307833 C643.029864,416.908793 644.720543,415.561505 646.326542,417.169541 C646.335833,417.178778 646.342469,417.184848 646.351229,417.193293 C655.195109,426.566775 667.512991,432 680.474599,432 C694.436706,432 707.548296,425.751276 716.482165,415.064288 C716.553041,414.998309 716.639845,414.913065 716.747885,414.802484 C718.12984,413.381036 719.447291,414.248262 720.010585,414.759202 C720.086505,414.838904 720.165345,414.915704 720.244185,414.992239 C720.278694,415.030507 720.297807,415.053995 720.297807,415.053995 L720.296479,415.044494 C720.32037,415.067191 720.342403,415.091735 720.366294,415.114168 C721.467664,416.111504 722.96642,416.687368 724.863888,416.837271 L725.099877,416.837271 C726.09719,416.837271 727.281116,416.191471 728.647941,414.881923 C730.067591,413.473406 731.540863,411.721008 733.063775,409.633702 C734.534393,407.649322 735.954309,405.503955 737.315559,403.206571 C738.690613,400.899424 739.868434,398.89657 740.87079,397.16159 C741.392143,396.225219 741.84023,395.390191 742.209742,394.654131 C742.573415,393.928363 742.838869,393.375461 743,393.012841 C742.573415,392.649694 742.186117,392.437242 741.813419,392.390001" id="Fill-1"></path>
        </g>
    </g>
</svg>